<?xml version="1.0" standalone="no"?>
<!DOCTYPE svg PUBLIC "-//W3C//DTD SVG 20010904//EN"
 "http://www.w3.org/TR/2001/REC-SVG-20010904/DTD/svg10.dtd">
<svg version="1.0" xmlns="http://www.w3.org/2000/svg"
 width="600.000000pt" height="600.000000pt" viewBox="0 0 600.000000 600.000000"
 preserveAspectRatio="xMidYMid meet">
<metadata>
Created by potrace 1.11, written by Peter Selinger 2001-2013
</metadata>
<g transform="translate(0.000000,600.000000) scale(0.100000,-0.100000)"
fill="#000000" stroke="none">
<path d="M903 5248 c4 -11 102 -312 284 -873 30 -93 65 -201 78 -240 13 -38
76 -232 140 -430 64 -198 145 -448 180 -555 131 -405 187 -575 300 -925 64
-198 142 -436 172 -530 30 -93 68 -208 83 -255 16 -47 78 -240 140 -430 116
-359 123 -381 141 -430 l11 -30 103 148 c161 232 420 602 459 655 25 34 34 57
32 75 -2 15 -16 97 -31 182 -15 85 -28 167 -30 182 -2 15 -9 53 -15 85 -5 32
-12 72 -15 88 -9 55 -21 125 -30 173 -3 15 -8 43 -11 62 -12 74 -45 266 -49
288 l-5 22 354 0 354 0 29 48 c31 49 93 150 362 595 90 148 160 271 157 274
-3 3 -153 7 -333 9 -180 2 -470 6 -643 8 -173 3 -344 5 -380 5 -55 1 -66 4
-67 19 -1 9 -4 28 -7 42 -5 24 -50 256 -60 310 -3 14 -9 48 -15 75 -5 28 -12
68 -15 91 -4 22 -11 55 -16 72 -5 18 -7 32 -5 32 3 0 0 11 -5 25 l-9 25 990 2
991 3 40 70 c22 39 52 90 66 115 14 25 38 68 54 95 16 28 33 57 38 65 6 8 52
89 104 180 51 91 116 205 145 254 28 49 51 90 51 92 0 1 19 35 43 76 24 40 56
94 70 121 l27 47 -2131 0 c-1701 0 -2130 -3 -2126 -12z"/>
</g>
</svg>
